<?xml version="1.0" encoding="UTF-8" standalone="no"?>
<!DOCTYPE svg PUBLIC "-//W3C//DTD SVG 1.1//EN"
 "http://www.w3.org/Graphics/SVG/1.1/DTD/svg11.dtd">
<!-- Generated by graphviz version 2.40.1 (20161225.0304)
 -->
<!-- Title: G Pages: 1 -->
<svg width="181pt" height="597pt"
 viewBox="0.00 0.00 180.73 597.00" xmlns="http://www.w3.org/2000/svg" xmlns:xlink="http://www.w3.org/1999/xlink">
<g id="graph0" class="graph" transform="scale(1 1) rotate(0) translate(4 593)">
<title>G</title>
<polygon fill="#ffffff" stroke="transparent" points="-4,4 -4,-593 176.734,-593 176.734,4 -4,4"/>
<!-- A0 -->
<g id="node1" class="node">
<title>A0</title>
<ellipse fill="none" stroke="#000000" cx="69.5545" cy="-578" rx="11" ry="11"/>
</g>
<!-- A1 -->
<g id="node2" class="node">
<title>A1</title>
<polygon fill="none" stroke="#000000" points="69.5545,-530 51.5545,-512 69.5545,-494 87.5545,-512 69.5545,-530"/>
</g>
<!-- A0&#45;&gt;A1 -->
<g id="edge1" class="edge">
<title>A0&#45;&gt;A1</title>
<path fill="none" stroke="#000000" d="M69.5545,-566.804C69.5545,-559.5358 69.5545,-549.7135 69.5545,-540.3916"/>
<polygon fill="#000000" stroke="#000000" points="69.5545,-530.2423 74.0546,-540.2423 69.5545,-535.2423 69.5546,-540.2423 69.5546,-540.2423 69.5546,-540.2423 69.5545,-535.2423 65.0546,-540.2424 69.5545,-530.2423 69.5545,-530.2423"/>
</g>
<!-- A2 -->
<g id="node3" class="node">
<title>A2</title>
<path fill="none" stroke="#000000" d="M12,-409.5C12,-409.5 57.109,-409.5 57.109,-409.5 63.109,-409.5 69.109,-415.5 69.109,-421.5 69.109,-421.5 69.109,-433.5 69.109,-433.5 69.109,-439.5 63.109,-445.5 57.109,-445.5 57.109,-445.5 12,-445.5 12,-445.5 6,-445.5 0,-439.5 0,-433.5 0,-433.5 0,-421.5 0,-421.5 0,-415.5 6,-409.5 12,-409.5"/>
<text text-anchor="middle" x="34.5545" y="-424.5" font-family="Helvetica,sans-Serif" font-size="10.00" fill="#000000">Fill Kettle</text>
</g>
<!-- A1&#45;&gt;A2 -->
<g id="edge2" class="edge">
<title>A1&#45;&gt;A2</title>
<path fill="none" stroke="#000000" d="M58.6252,-504.927C49.8741,-498.5547 38.2415,-488.311 33.0965,-476 30.4958,-469.7772 29.6645,-462.7029 29.7501,-455.9184"/>
<polygon fill="#000000" stroke="#000000" points="30.5169,-445.6596 34.2589,-455.9673 30.1442,-450.6457 29.7714,-455.6318 29.7714,-455.6318 29.7714,-455.6318 30.1442,-450.6457 25.2839,-455.2963 30.5169,-445.6596 30.5169,-445.6596"/>
<text text-anchor="middle" x="63.2835" y="-467" font-family="Helvetica,sans-Serif" font-size="10.00" fill="#000000">[kettle empty]</text>
</g>
<!-- A3 -->
<g id="node4" class="node">
<title>A3</title>
<polygon fill="#d3d3d3" stroke="#000000" stroke-width="4" points="64.5545,-367.5 64.5545,-371.5 100.5545,-371.5 100.5545,-367.5 64.5545,-367.5"/>
<text text-anchor="middle" x="73.1935" y="-369.2" font-family="Helvetica,sans-Serif" font-size="1.00" fill="#000000"> </text>
<polyline fill="none" stroke="#000000" stroke-width="4" points="81.8324,-367.5 81.8324,-371.5 "/>
<text text-anchor="middle" x="90.9714" y="-369.2" font-family="Helvetica,sans-Serif" font-size="1.00" fill="#000000"> </text>
</g>
<!-- A1&#45;&gt;A3 -->
<g id="edge4" class="edge">
<title>A1&#45;&gt;A3:n</title>
<path fill="none" stroke="#000000" d="M78.1131,-502.0674C83.4113,-495.2369 89.7257,-485.6819 92.5545,-476 94.0502,-470.8807 92.6121,-469.333 92.5545,-464 92.15,-426.5759 90.825,-414.7136 90.5902,-381.8808"/>
<polygon fill="#000000" stroke="#000000" points="90.5545,-371.5 95.089,-381.4844 90.5718,-376.5 90.589,-381.4999 90.589,-381.4999 90.589,-381.4999 90.5718,-376.5 86.089,-381.5155 90.5545,-371.5 90.5545,-371.5"/>
<text text-anchor="middle" x="114.0585" y="-424.5" font-family="Helvetica,sans-Serif" font-size="10.00" fill="#000000">[kettle full]</text>
</g>
<!-- A2&#45;&gt;A3 -->
<g id="edge3" class="edge">
<title>A2&#45;&gt;A3:n</title>
<path fill="none" stroke="#000000" d="M55.4246,-409.4134C62.5239,-401.7085 69.3798,-392.0503 72.2035,-381.4593"/>
<polygon fill="#000000" stroke="#000000" points="73.5545,-371.5 76.6694,-382.0142 72.8824,-376.4546 72.2103,-381.4093 72.2103,-381.4093 72.2103,-381.4093 72.8824,-376.4546 67.7511,-380.8043 73.5545,-371.5 73.5545,-371.5"/>
</g>
<!-- A4 -->
<g id="node5" class="node">
<title>A4</title>
<path fill="none" stroke="#000000" d="M36.05,-238.5C36.05,-238.5 85.059,-238.5 85.059,-238.5 91.059,-238.5 97.059,-244.5 97.059,-250.5 97.059,-250.5 97.059,-262.5 97.059,-262.5 97.059,-268.5 91.059,-274.5 85.059,-274.5 85.059,-274.5 36.05,-274.5 36.05,-274.5 30.05,-274.5 24.05,-268.5 24.05,-262.5 24.05,-262.5 24.05,-250.5 24.05,-250.5 24.05,-244.5 30.05,-238.5 36.05,-238.5"/>
<text text-anchor="middle" x="60.5545" y="-253.5" font-family="Helvetica,sans-Serif" font-size="10.00" fill="#000000">Boil Kettle</text>
</g>
<!-- A3&#45;&gt;A4 -->
<g id="edge5" class="edge">
<title>A3&#45;&gt;A4</title>
<path fill="none" stroke="#000000" d="M82.095,-367.1398C80.0616,-356.6958 71.7227,-313.8641 66.0373,-284.6615"/>
<polygon fill="#000000" stroke="#000000" points="64.0793,-274.6045 70.4074,-283.5602 65.0348,-279.5123 65.9904,-284.4202 65.9904,-284.4202 65.9904,-284.4202 65.0348,-279.5123 61.5733,-285.2802 64.0793,-274.6045 64.0793,-274.6045"/>
</g>
<!-- A6 -->
<g id="node7" class="node">
<title>A6</title>
<path fill="none" stroke="#000000" d="M98.375,-293.5C98.375,-293.5 160.734,-293.5 160.734,-293.5 166.734,-293.5 172.734,-299.5 172.734,-305.5 172.734,-305.5 172.734,-317.5 172.734,-317.5 172.734,-323.5 166.734,-329.5 160.734,-329.5 160.734,-329.5 98.375,-329.5 98.375,-329.5 92.375,-329.5 86.375,-323.5 86.375,-317.5 86.375,-317.5 86.375,-305.5 86.375,-305.5 86.375,-299.5 92.375,-293.5 98.375,-293.5"/>
<text text-anchor="middle" x="129.5545" y="-308.5" font-family="Helvetica,sans-Serif" font-size="10.00" fill="#000000">Add Tea Bag</text>
</g>
<!-- A3&#45;&gt;A6 -->
<g id="edge7" class="edge">
<title>A3&#45;&gt;A6</title>
<path fill="none" stroke="#000000" d="M84.574,-367.0078C88.7712,-361.8283 98.8429,-349.3994 108.394,-337.6129"/>
<polygon fill="#000000" stroke="#000000" points="114.8446,-329.6527 112.0449,-340.2552 111.6966,-333.5374 108.5487,-337.422 108.5487,-337.422 108.5487,-337.422 111.6966,-333.5374 105.0525,-334.5889 114.8446,-329.6527 114.8446,-329.6527"/>
</g>
<!-- A5 -->
<g id="node6" class="node">
<title>A5</title>
<polygon fill="#d3d3d3" stroke="#000000" stroke-width="4" points="69.5545,-141.5 69.5545,-145.5 105.5545,-145.5 105.5545,-141.5 69.5545,-141.5"/>
<text text-anchor="middle" x="78.1935" y="-143.2" font-family="Helvetica,sans-Serif" font-size="1.00" fill="#000000"> </text>
<polyline fill="none" stroke="#000000" stroke-width="4" points="86.8324,-141.5 86.8324,-145.5 "/>
<text text-anchor="middle" x="95.9714" y="-143.2" font-family="Helvetica,sans-Serif" font-size="1.00" fill="#000000"> </text>
</g>
<!-- A4&#45;&gt;A5 -->
<g id="edge6" class="edge">
<title>A4&#45;&gt;A5:n</title>
<path fill="none" stroke="#000000" d="M65.3782,-238.1855C70.1685,-218.5223 76.987,-186.0083 78.3226,-155.6798"/>
<polygon fill="#000000" stroke="#000000" points="78.5545,-145.5 82.8255,-155.5999 78.4406,-150.4987 78.3267,-155.4974 78.3267,-155.4974 78.3267,-155.4974 78.4406,-150.4987 73.8278,-155.3949 78.5545,-145.5 78.5545,-145.5"/>
</g>
<!-- A8 -->
<g id="node9" class="node">
<title>A8</title>
<path fill="none" stroke="#000000" d="M60.2745,-67.5C60.2745,-67.5 114.8345,-67.5 114.8345,-67.5 120.8345,-67.5 126.8345,-73.5 126.8345,-79.5 126.8345,-79.5 126.8345,-91.5 126.8345,-91.5 126.8345,-97.5 120.8345,-103.5 114.8345,-103.5 114.8345,-103.5 60.2745,-103.5 60.2745,-103.5 54.2745,-103.5 48.2745,-97.5 48.2745,-91.5 48.2745,-91.5 48.2745,-79.5 48.2745,-79.5 48.2745,-73.5 54.2745,-67.5 60.2745,-67.5"/>
<text text-anchor="middle" x="87.5545" y="-82.5" font-family="Helvetica,sans-Serif" font-size="10.00" fill="#000000">Pour Water</text>
</g>
<!-- A5&#45;&gt;A8 -->
<g id="edge10" class="edge">
<title>A5&#45;&gt;A8</title>
<path fill="none" stroke="#000000" d="M87.5545,-141.0078C87.5545,-136.1272 87.5545,-124.8094 87.5545,-113.6578"/>
<polygon fill="#000000" stroke="#000000" points="87.5545,-103.6527 92.0546,-113.6527 87.5545,-108.6527 87.5546,-113.6527 87.5546,-113.6527 87.5546,-113.6527 87.5545,-108.6527 83.0546,-113.6527 87.5545,-103.6527 87.5545,-103.6527"/>
</g>
<!-- A7 -->
<g id="node8" class="node">
<title>A7</title>
<path fill="none" stroke="#000000" d="M106.388,-183.5C106.388,-183.5 148.721,-183.5 148.721,-183.5 154.721,-183.5 160.721,-189.5 160.721,-195.5 160.721,-195.5 160.721,-207.5 160.721,-207.5 160.721,-213.5 154.721,-219.5 148.721,-219.5 148.721,-219.5 106.388,-219.5 106.388,-219.5 100.388,-219.5 94.388,-213.5 94.388,-207.5 94.388,-207.5 94.388,-195.5 94.388,-195.5 94.388,-189.5 100.388,-183.5 106.388,-183.5"/>
<text text-anchor="middle" x="127.5545" y="-198.5" font-family="Helvetica,sans-Serif" font-size="10.00" fill="#000000">Add Milk</text>
</g>
<!-- A6&#45;&gt;A7 -->
<g id="edge8" class="edge">
<title>A6&#45;&gt;A7</title>
<path fill="none" stroke="#000000" d="M129.2242,-293.3357C128.9101,-276.0595 128.4328,-249.809 128.0689,-229.7917"/>
<polygon fill="#000000" stroke="#000000" points="127.8852,-219.6912 132.5664,-229.6077 127.9762,-224.6904 128.0671,-229.6896 128.0671,-229.6896 128.0671,-229.6896 127.9762,-224.6904 123.5679,-229.7714 127.8852,-219.6912 127.8852,-219.6912"/>
</g>
<!-- A7&#45;&gt;A5 -->
<g id="edge9" class="edge">
<title>A7&#45;&gt;A5:n</title>
<path fill="none" stroke="#000000" d="M110.8047,-183.2627C104.9374,-175.4534 99.2049,-165.7676 96.7723,-155.4914"/>
<polygon fill="#000000" stroke="#000000" points="95.5545,-145.5 101.2314,-154.8821 96.1595,-150.4633 96.7645,-155.4265 96.7645,-155.4265 96.7645,-155.4265 96.1595,-150.4633 92.2975,-155.971 95.5545,-145.5 95.5545,-145.5"/>
</g>
<!-- A9 -->
<g id="node10" class="node">
<title>A9</title>
<ellipse fill="none" stroke="#000000" cx="87.5545" cy="-15" rx="11" ry="11"/>
<ellipse fill="none" stroke="#000000" cx="87.5545" cy="-15" rx="15" ry="15"/>
</g>
<!-- A8&#45;&gt;A9 -->
<g id="edge11" class="edge">
<title>A8&#45;&gt;A9</title>
<path fill="none" stroke="#000000" d="M87.5545,-67.3445C87.5545,-59.1071 87.5545,-49.2264 87.5545,-40.2794"/>
<polygon fill="#000000" stroke="#000000" points="87.5545,-30.0025 92.0546,-40.0024 87.5545,-35.0025 87.5546,-40.0025 87.5546,-40.0025 87.5546,-40.0025 87.5545,-35.0025 83.0546,-40.0025 87.5545,-30.0025 87.5545,-30.0025"/>
</g>
</g>
</svg>
